ffmpeg started on 2025-05-24 at 14:30:23
Report written to "D:\Convert\FFMetrics\reports\ssim_report-6.txt"
Log level: 32
Command line:
ffmpeg -hide_banner -nostdin -i "G:\\\xc0\xed\xe8\xec\xe5\\\xce\xed\xe3\xee\xe8\xed\xe3\xe8\\!_33_\xc7\xe8\xec\xe0_2024\\DreamCast\\\xc2\xf0\xe5\xec\xff \xef\xfb\xf2\xee\xea, \xef\xf0\xe8\xed\xf6\xe5\xf1\xf1\xe0!\\[DC] Hime-sama Goumon no Jikan Desu - 02_Telegram_HEVC.mkv" -i "G:\\\xc0\xed\xe8\xec\xe5\\\xce\xed\xe3\xee\xe8\xed\xe3\xe8\\!_33_\xc7\xe8\xec\xe0_2024\\DreamCast\\\xc2\xf0\xe5\xec\xff \xef\xfb\xf2\xee\xea, \xef\xf0\xe8\xed\xf6\xe5\xf1\xf1\xe0!\\[DC] Hime-sama Goumon no Jikan Desu - 02_Telegram.mp4" -lavfi "[0:v]settb=AVTB,setpts=PTS-STARTPTS,format=pix_fmts=yuv420p10,fps=24000/1001,scale=1920:1080:flags=bicubic[main];[1:v]settb=AVTB,setpts=PTS-STARTPTS,format=pix_fmts=yuv420p,fps=24000/1001,scale=1920:1080:flags=bicubic[ref];[main][ref]ssim=eof_action=endall:stats_file='D\\:/Convert/FFMetrics/logs/ssim_logfile-6.txt'" -f null -
Input #0, matroska,webm, from 'G:\Аниме\Онгоинги\!_33_Зима_2024\DreamCast\Время пыток, принцесса!\[DC] Hime-sama Goumon no Jikan Desu - 02_Telegram_HEVC.mkv':
  Metadata:
    COMPATIBLE_BRANDS: isomiso2avc1mp41
    MAJOR_BRAND     : isom
    MINOR_VERSION   : 512
    ENCODER         : Lavf61.7.100
  Duration: 00:23:46.65, start: -0.021000, bitrate: 1255 kb/s
  Stream #0:0: Video: hevc (Main 10), yuv420p10le(tv, bt709, progressive), 1920x1080 [SAR 1:1 DAR 16:9], 23.98 fps, 23.98 tbr, 1k tbn (default)
      Metadata:
        HANDLER_NAME    : VideoHandler
        VENDOR_ID       : [0][0][0][0]
        ENCODER         : Lavc61.19.100 libx265
        BPS             : 1058282
        DURATION        : 00:23:46.549708333
        NUMBER_OF_FRAMES: 34203
        NUMBER_OF_BYTES : 188711538
        _STATISTICS_WRITING_APP: mkvpropedit v66.0.0 ('Josie') 64-bit
        _STATISTICS_WRITING_DATE_UTC: 2025-05-21 14:16:22
        _STATISTICS_TAGS: BPS DURATION NUMBER_OF_FRAMES NUMBER_OF_BYTES
  Stream #0:1: Audio: aac (LC), 48000 Hz, stereo, fltp (default)
      Metadata:
        HANDLER_NAME    : SoundHandler
        VENDOR_ID       : [0][0][0][0]
        ENCODER         : Lavc61.19.100 aac
        BPS             : 193552
        DURATION        : 00:23:46.645000000
        NUMBER_OF_FRAMES: 66875
        NUMBER_OF_BYTES : 34516308
        _STATISTICS_WRITING_APP: mkvpropedit v66.0.0 ('Josie') 64-bit
        _STATISTICS_WRITING_DATE_UTC: 2025-05-21 14:16:22
        _STATISTICS_TAGS: BPS DURATION NUMBER_OF_FRAMES NUMBER_OF_BYTES
Input #1, mov,mp4,m4a,3gp,3g2,mj2, from 'G:\Аниме\Онгоинги\!_33_Зима_2024\DreamCast\Время пыток, принцесса!\[DC] Hime-sama Goumon no Jikan Desu - 02_Telegram.mp4':
  Metadata:
    major_brand     : isom
    minor_version   : 512
    compatible_brands: isomiso2avc1mp41
    encoder         : Lavf60.16.100
  Duration: 00:23:46.62, start: 0.000000, bitrate: 3688 kb/s
  Stream #1:0[0x1](und): Video: h264 (High) (avc1 / 0x31637661), yuv420p(tv, bt709, progressive), 1920x1080 [SAR 1:1 DAR 16:9], 3541 kb/s, 23.98 fps, 23.98 tbr, 24k tbn (default)
      Metadata:
        handler_name    : VideoHandler
        vendor_id       : [0][0][0][0]
        encoder         : Lavc60.31.102 h264_qsv
  Stream #1:1[0x2](und): Audio: aac (HE-AACv2) (mp4a / 0x6134706D), 48000 Hz, stereo, fltp, 144 kb/s (default)
      Metadata:
        handler_name    : SoundHandler
        vendor_id       : [0][0][0][0]
Stream mapping:
  Stream #0:0 (hevc) -> settb:default
  Stream #1:0 (h264) -> settb:default
  ssim:default -> Stream #0:0 (wrapped_avframe)
  Stream #0:1 -> #0:1 (aac (native) -> pcm_s16le (native))
Output #0, null, to 'pipe:':
  Metadata:
    COMPATIBLE_BRANDS: isomiso2avc1mp41
    MAJOR_BRAND     : isom
    MINOR_VERSION   : 512
    encoder         : Lavf61.7.100
  Stream #0:0: Video: wrapped_avframe, yuv420p10le(tv, bt709, progressive), 1920x1080 [SAR 1:1 DAR 16:9], q=2-31, 200 kb/s, 23.98 fps, 23.98 tbn
      Metadata:
        encoder         : Lavc61.19.100 wrapped_avframe
  Stream #0:1: Audio: pcm_s16le, 48000 Hz, stereo, s16, 1536 kb/s (default)
      Metadata:
        HANDLER_NAME    : SoundHandler
        VENDOR_ID       : [0][0][0][0]
        _STATISTICS_TAGS: BPS DURATION NUMBER_OF_FRAMES NUMBER_OF_BYTES
        BPS             : 193552
        DURATION        : 00:23:46.645000000
        NUMBER_OF_FRAMES: 66875
        NUMBER_OF_BYTES : 34516308
        _STATISTICS_WRITING_APP: mkvpropedit v66.0.0 ('Josie') 64-bit
        _STATISTICS_WRITING_DATE_UTC: 2025-05-21 14:16:22
        encoder         : Lavc61.19.100 pcm_s16le
frame=  185 fps=0.0 q=-0.0 size=N/A time=00:00:07.71 bitrate=N/A speed=14.6x    frame=  410 fps=396 q=-0.0 size=N/A time=00:00:17.10 bitrate=N/A speed=16.5x    frame=  638 fps=413 q=-0.0 size=N/A time=00:00:26.60 bitrate=N/A speed=17.2x    frame=  893 fps=431 q=-0.0 size=N/A time=00:00:37.24 bitrate=N/A speed=  18x    frame= 1145 fps=443 q=-0.0 size=N/A time=00:00:47.79 bitrate=N/A speed=18.5x    frame= 1368 fps=442 q=-0.0 size=N/A time=00:00:57.05 bitrate=N/A speed=18.4x    frame= 1627 fps=450 q=-0.0 size=N/A time=00:01:07.85 bitrate=N/A speed=18.8x    frame= 1888 fps=457 q=-0.0 size=N/A time=00:01:18.74 bitrate=N/A speed=19.1x    frame= 2130 fps=459 q=-0.0 size=N/A time=00:01:28.83 bitrate=N/A speed=19.1x    frame= 2341 fps=453 q=-0.0 size=N/A time=00:01:37.63 bitrate=N/A speed=18.9x    frame= 2527 fps=445 q=-0.0 size=N/A time=00:01:45.39 bitrate=N/A speed=18.6x    frame= 2779 fps=449 q=-0.0 size=N/A time=00:01:55.90 bitrate=N/A speed=18.7x    frame= 3018 fps=450 q=-0.0 size=N/A time=00:02:05.87 bitrate=N/A speed=18.8x    frame= 3239 fps=448 q=-0.0 size=N/A time=00:02:15.09 bitrate=N/A speed=18.7x    frame= 3440 fps=445 q=-0.0 size=N/A time=00:02:23.47 bitrate=N/A speed=18.5x    frame= 3641 fps=441 q=-0.0 size=N/A time=00:02:31.86 bitrate=N/A speed=18.4x    frame= 3811 fps=435 q=-0.0 size=N/A time=00:02:38.95 bitrate=N/A speed=18.1x    frame= 4022 fps=433 q=-0.0 size=N/A time=00:02:47.75 bitrate=N/A speed=18.1x    frame= 4276 fps=436 q=-0.0 size=N/A time=00:02:58.34 bitrate=N/A speed=18.2x    frame= 4535 fps=440 q=-0.0 size=N/A time=00:03:09.14 bitrate=N/A speed=18.3x    frame= 4782 fps=442 q=-0.0 size=N/A time=00:03:19.44 bitrate=N/A speed=18.4x    frame= 4936 fps=435 q=-0.0 size=N/A time=00:03:25.87 bitrate=N/A speed=18.1x    frame= 5099 fps=430 q=-0.0 size=N/A time=00:03:32.67 bitrate=N/A speed=17.9x    frame= 5315 fps=430 q=-0.0 size=N/A time=00:03:41.67 bitrate=N/A speed=17.9x    frame= 5531 fps=429 q=-0.0 size=N/A time=00:03:50.68 bitrate=N/A speed=17.9x    frame= 5748 fps=429 q=-0.0 size=N/A time=00:03:59.73 bitrate=N/A speed=17.9x    frame= 6000 fps=431 q=-0.0 size=N/A time=00:04:10.25 bitrate=N/A speed=  18x    frame= 6214 fps=430 q=-0.0 size=N/A time=00:04:19.17 bitrate=N/A speed=17.9x    frame= 6452 fps=431 q=-0.0 size=N/A time=00:04:29.10 bitrate=N/A speed=  18x    frame= 6699 fps=433 q=-0.0 size=N/A time=00:04:39.40 bitrate=N/A speed=18.1x    frame= 6943 fps=434 q=-0.0 size=N/A time=00:04:49.58 bitrate=N/A speed=18.1x    frame= 7196 fps=436 q=-0.0 size=N/A time=00:05:00.13 bitrate=N/A speed=18.2x    frame= 7478 fps=439 q=-0.0 size=N/A time=00:05:11.89 bitrate=N/A speed=18.3x    frame= 7762 fps=442 q=-0.0 size=N/A time=00:05:23.74 bitrate=N/A speed=18.5x    frame= 8010 fps=444 q=-0.0 size=N/A time=00:05:34.08 bitrate=N/A speed=18.5x    frame= 8234 fps=444 q=-0.0 size=N/A time=00:05:43.42 bitrate=N/A speed=18.5x    frame= 8466 fps=443 q=-0.0 size=N/A time=00:05:53.10 bitrate=N/A speed=18.5x    frame= 8684 fps=443 q=-0.0 size=N/A time=00:06:02.19 bitrate=N/A speed=18.5x    frame= 8928 fps=444 q=-0.0 size=N/A time=00:06:12.37 bitrate=N/A speed=18.5x    frame= 9163 fps=444 q=-0.0 size=N/A time=00:06:22.17 bitrate=N/A speed=18.5x    frame= 9377 fps=443 q=-0.0 size=N/A time=00:06:31.09 bitrate=N/A speed=18.5x    frame= 9583 fps=442 q=-0.0 size=N/A time=00:06:39.69 bitrate=N/A speed=18.5x    frame= 9800 fps=442 q=-0.0 size=N/A time=00:06:48.74 bitrate=N/A speed=18.4x    frame=10013 fps=441 q=-0.0 size=N/A time=00:06:57.62 bitrate=N/A speed=18.4x    frame=10213 fps=440 q=-0.0 size=N/A time=00:07:05.96 bitrate=N/A speed=18.4x    frame=10484 fps=442 q=-0.0 size=N/A time=00:07:17.27 bitrate=N/A speed=18.4x    frame=10746 fps=443 q=-0.0 size=N/A time=00:07:28.19 bitrate=N/A speed=18.5x    frame=11023 fps=445 q=-0.0 size=N/A time=00:07:39.75 bitrate=N/A speed=18.6x    frame=11279 fps=446 q=-0.0 size=N/A time=00:07:50.42 bitrate=N/A speed=18.6x    frame=11543 fps=448 q=-0.0 size=N/A time=00:08:01.43 bitrate=N/A speed=18.7x    frame=11788 fps=448 q=-0.0 size=N/A time=00:08:11.65 bitrate=N/A speed=18.7x    frame=12054 fps=449 q=-0.0 size=N/A time=00:08:22.75 bitrate=N/A speed=18.7x    frame=12323 fps=450 q=-0.0 size=N/A time=00:08:33.97 bitrate=N/A speed=18.8x    frame=12567 fps=451 q=-0.0 size=N/A time=00:08:44.14 bitrate=N/A speed=18.8x    frame=12832 fps=452 q=-0.0 size=N/A time=00:08:55.20 bitrate=N/A speed=18.9x    frame=13066 fps=452 q=-0.0 size=N/A time=00:09:04.96 bitrate=N/A speed=18.9x    frame=13264 fps=451 q=-0.0 size=N/A time=00:09:13.21 bitrate=N/A speed=18.8x    frame=13511 fps=451 q=-0.0 size=N/A time=00:09:23.52 bitrate=N/A speed=18.8x    frame=13757 fps=452 q=-0.0 size=N/A time=00:09:33.78 bitrate=N/A speed=18.8x    frame=13975 fps=451 q=-0.0 size=N/A time=00:09:42.87 bitrate=N/A speed=18.8x    frame=14228 fps=452 q=-0.0 size=N/A time=00:09:53.42 bitrate=N/A speed=18.9x    frame=14502 fps=453 q=-0.0 size=N/A time=00:10:04.85 bitrate=N/A speed=18.9x    frame=14753 fps=454 q=-0.0 size=N/A time=00:10:15.32 bitrate=N/A speed=18.9x    frame=15016 fps=455 q=-0.0 size=N/A time=00:10:26.29 bitrate=N/A speed=  19x    frame=15277 fps=455 q=-0.0 size=N/A time=00:10:37.17 bitrate=N/A speed=  19x    frame=15551 fps=456 q=-0.0 size=N/A time=00:10:48.60 bitrate=N/A speed=  19x    frame=15782 fps=456 q=-0.0 size=N/A time=00:10:58.24 bitrate=N/A speed=  19x    frame=16023 fps=456 q=-0.0 size=N/A time=00:11:08.29 bitrate=N/A speed=  19x    frame=16276 fps=457 q=-0.0 size=N/A time=00:11:18.84 bitrate=N/A speed=19.1x    frame=16512 fps=457 q=-0.0 size=N/A time=00:11:28.68 bitrate=N/A speed=19.1x    frame=16685 fps=455 q=-0.0 size=N/A time=00:11:35.90 bitrate=N/A speed=  19x    frame=16961 fps=456 q=-0.0 size=N/A time=00:11:47.41 bitrate=N/A speed=  19x    frame=17222 fps=457 q=-0.0 size=N/A time=00:11:58.30 bitrate=N/A speed=19.1x    frame=17488 fps=458 q=-0.0 size=N/A time=00:12:09.39 bitrate=N/A speed=19.1x    frame=17749 fps=459 q=-0.0 size=N/A time=00:12:20.28 bitrate=N/A speed=19.1x    frame=18015 fps=459 q=-0.0 size=N/A time=00:12:31.37 bitrate=N/A speed=19.2x    frame=18278 fps=460 q=-0.0 size=N/A time=00:12:42.34 bitrate=N/A speed=19.2x    frame=18534 fps=460 q=-0.0 size=N/A time=00:12:53.02 bitrate=N/A speed=19.2x    frame=18731 fps=459 q=-0.0 size=N/A time=00:13:01.23 bitrate=N/A speed=19.2x    frame=18961 fps=459 q=-0.0 size=N/A time=00:13:10.83 bitrate=N/A speed=19.1x    frame=19193 fps=459 q=-0.0 size=N/A time=00:13:20.50 bitrate=N/A speed=19.1x    frame=19462 fps=460 q=-0.0 size=N/A time=00:13:31.72 bitrate=N/A speed=19.2x    frame=19722 fps=460 q=-0.0 size=N/A time=00:13:42.57 bitrate=N/A speed=19.2x    frame=19972 fps=461 q=-0.0 size=N/A time=00:13:52.99 bitrate=N/A speed=19.2x    frame=20211 fps=461 q=-0.0 size=N/A time=00:14:02.96 bitrate=N/A speed=19.2x    frame=20463 fps=461 q=-0.0 size=N/A time=00:14:13.47 bitrate=N/A speed=19.2x    frame=20709 fps=461 q=-0.0 size=N/A time=00:14:23.73 bitrate=N/A speed=19.2x    frame=20961 fps=461 q=-0.0 size=N/A time=00:14:34.24 bitrate=N/A speed=19.2x    frame=21214 fps=462 q=-0.0 size=N/A time=00:14:44.80 bitrate=N/A speed=19.3x    frame=21462 fps=462 q=-0.0 size=N/A time=00:14:55.14 bitrate=N/A speed=19.3x    frame=21708 fps=462 q=-0.0 size=N/A time=00:15:05.40 bitrate=N/A speed=19.3x    frame=21950 fps=462 q=-0.0 size=N/A time=00:15:15.49 bitrate=N/A speed=19.3x    frame=22195 fps=462 q=-0.0 size=N/A time=00:15:25.71 bitrate=N/A speed=19.3x    frame=22458 fps=463 q=-0.0 size=N/A time=00:15:36.68 bitrate=N/A speed=19.3x    frame=22723 fps=463 q=-0.0 size=N/A time=00:15:47.73 bitrate=N/A speed=19.3x    frame=22967 fps=463 q=-0.0 size=N/A time=00:15:57.91 bitrate=N/A speed=19.3x    frame=23213 fps=463 q=-0.0 size=N/A time=00:16:08.17 bitrate=N/A speed=19.3x    frame=23474 fps=464 q=-0.0 size=N/A time=00:16:19.06 bitrate=N/A speed=19.3x    frame=23731 fps=464 q=-0.0 size=N/A time=00:16:29.78 bitrate=N/A speed=19.4x    frame=23980 fps=465 q=-0.0 size=N/A time=00:16:40.16 bitrate=N/A speed=19.4x    frame=24231 fps=465 q=-0.0 size=N/A time=00:16:50.63 bitrate=N/A speed=19.4x    frame=24469 fps=465 q=-0.0 size=N/A time=00:17:00.56 bitrate=N/A speed=19.4x    frame=24737 fps=465 q=-0.0 size=N/A time=00:17:11.73 bitrate=N/A speed=19.4x    frame=25012 fps=466 q=-0.0 size=N/A time=00:17:23.20 bitrate=N/A speed=19.4x    frame=25274 fps=466 q=-0.0 size=N/A time=00:17:34.13 bitrate=N/A speed=19.4x    frame=25547 fps=467 q=-0.0 size=N/A time=00:17:45.52 bitrate=N/A speed=19.5x    frame=25793 fps=467 q=-0.0 size=N/A time=00:17:55.78 bitrate=N/A speed=19.5x    frame=25970 fps=466 q=-0.0 size=N/A time=00:18:03.16 bitrate=N/A speed=19.4x    frame=26209 fps=466 q=-0.0 size=N/A time=00:18:13.13 bitrate=N/A speed=19.4x    frame=26454 fps=466 q=-0.0 size=N/A time=00:18:23.35 bitrate=N/A speed=19.4x    frame=26715 fps=466 q=-0.0 size=N/A time=00:18:34.23 bitrate=N/A speed=19.4x    frame=26994 fps=467 q=-0.0 size=N/A time=00:18:45.87 bitrate=N/A speed=19.5x    frame=27247 fps=467 q=-0.0 size=N/A time=00:18:56.42 bitrate=N/A speed=19.5x    frame=27501 fps=467 q=-0.0 size=N/A time=00:19:07.02 bitrate=N/A speed=19.5x    frame=27763 fps=468 q=-0.0 size=N/A time=00:19:17.94 bitrate=N/A speed=19.5x    frame=28034 fps=468 q=-0.0 size=N/A time=00:19:29.25 bitrate=N/A speed=19.5x    frame=28292 fps=468 q=-0.0 size=N/A time=00:19:40.01 bitrate=N/A speed=19.5x    frame=28553 fps=469 q=-0.0 size=N/A time=00:19:50.89 bitrate=N/A speed=19.5x    frame=28806 fps=469 q=-0.0 size=N/A time=00:20:01.45 bitrate=N/A speed=19.6x    frame=29019 fps=468 q=-0.0 size=N/A time=00:20:10.33 bitrate=N/A speed=19.5x    frame=29274 fps=469 q=-0.0 size=N/A time=00:20:20.96 bitrate=N/A speed=19.5x    frame=29505 fps=468 q=-0.0 size=N/A time=00:20:30.60 bitrate=N/A speed=19.5x    frame=29731 fps=468 q=-0.0 size=N/A time=00:20:40.03 bitrate=N/A speed=19.5x    frame=29978 fps=468 q=-0.0 size=N/A time=00:20:50.33 bitrate=N/A speed=19.5x    frame=30221 fps=468 q=-0.0 size=N/A time=00:21:00.46 bitrate=N/A speed=19.5x    frame=30473 fps=468 q=-0.0 size=N/A time=00:21:10.97 bitrate=N/A speed=19.5x    frame=30723 fps=469 q=-0.0 size=N/A time=00:21:21.40 bitrate=N/A speed=19.5x    frame=30962 fps=469 q=-0.0 size=N/A time=00:21:31.37 bitrate=N/A speed=19.5x    frame=31243 fps=469 q=-0.0 size=N/A time=00:21:43.09 bitrate=N/A speed=19.6x    frame=31510 fps=469 q=-0.0 size=N/A time=00:21:54.22 bitrate=N/A speed=19.6x    frame=31727 fps=469 q=-0.0 size=N/A time=00:22:03.28 bitrate=N/A speed=19.6x    frame=31890 fps=468 q=-0.0 size=N/A time=00:22:10.07 bitrate=N/A speed=19.5x    frame=32064 fps=467 q=-0.0 size=N/A time=00:22:17.33 bitrate=N/A speed=19.5x    frame=32263 fps=466 q=-0.0 size=N/A time=00:22:25.63 bitrate=N/A speed=19.5x    frame=32488 fps=466 q=-0.0 size=N/A time=00:22:35.02 bitrate=N/A speed=19.4x    frame=32686 fps=466 q=-0.0 size=N/A time=00:22:43.27 bitrate=N/A speed=19.4x    frame=32878 fps=465 q=-0.0 size=N/A time=00:22:51.28 bitrate=N/A speed=19.4x    frame=33074 fps=464 q=-0.0 size=N/A time=00:22:59.46 bitrate=N/A speed=19.4x    frame=33205 fps=463 q=-0.0 size=N/A time=00:23:04.92 bitrate=N/A speed=19.3x    frame=33399 fps=462 q=-0.0 size=N/A time=00:23:13.01 bitrate=N/A speed=19.3x    frame=33596 fps=462 q=-0.0 size=N/A time=00:23:21.23 bitrate=N/A speed=19.2x    frame=33840 fps=462 q=-0.0 size=N/A time=00:23:31.41 bitrate=N/A speed=19.2x    frame=34091 fps=462 q=-0.0 size=N/A time=00:23:41.87 bitrate=N/A speed=19.3x    [Parsed_ssim_10 @ 000001f8e7838fc0] SSIM Y:0.995072 (23.073128) U:0.994223 (22.383302) V:0.994955 (22.971537) All:0.994911 (22.933655)
[out#0/null @ 000001f8da3ceec0] video:14697KiB audio:267500KiB subtitle:0KiB other streams:0KiB global headers:0KiB muxing overhead: unknown
frame=34203 fps=462 q=-0.0 Lsize=N/A time=00:23:46.55 bitrate=N/A speed=19.3x    
